<?xml version="1.0" encoding="UTF-8"?>
<svg width="21px" height="24px" viewBox="0 0 21 24" version="1.1" xmlns="http://www.w3.org/2000/svg" xmlns:xlink="http://www.w3.org/1999/xlink">
    <!-- Generator: Sketch 52.6 (67491) - http://www.bohemiancoding.com/sketch -->
    <title>open-folder</title>
    <desc>Created with Sketch.</desc>
    <defs>
        <linearGradient x1="50%" y1="0%" x2="50%" y2="100%" id="linearGradient-1">
            <stop stop-color="#C900FF" offset="0%"></stop>
            <stop stop-color="#9800FF" offset="100%"></stop>
        </linearGradient>
        <linearGradient x1="50%" y1="0%" x2="50%" y2="100%" id="linearGradient-2">
            <stop stop-color="#E276FF" offset="0%"></stop>
            <stop stop-color="#B64CFE" offset="100%"></stop>
        </linearGradient>
    </defs>
    <g id="admin-menu" stroke="none" stroke-width="1" fill="none" fill-rule="evenodd">
        <g id="open-folder" transform="translate(1.000000, 1.000000)" stroke="#5A008E">
            <g id="icon">
                <polygon id="Path" fill-opacity="0.5" fill="url(#linearGradient-1)" stroke-linejoin="round" points="0 0 0 6.10322581 7.9483871 6.10322581 7.9483871 1.14678093 3.97419355 1.14678093 2.84625416 0"></polygon>
                <polygon id="Path-2" fill="url(#linearGradient-2)" stroke-linejoin="round" points="0 6.10322581 1.70322581 2.69677419 9.6516129 2.69677419 7.92731855 6.10322581"></polygon>
                <polygon id="Path" fill-opacity="0.5" fill="url(#linearGradient-1)" stroke-linejoin="round" points="10.6451613 7.09677419 10.6451613 13.2 18.5935484 13.2 18.5935484 8.24355513 14.6193548 8.24355513 13.4914154 7.09677419"></polygon>
                <polygon id="Path-Copy" fill-opacity="0.5" fill="url(#linearGradient-1)" stroke-linejoin="round" points="10.6451613 15.8967742 10.6451613 22 18.5935484 22 18.5935484 17.0435551 14.6193548 17.0435551 13.4914154 15.8967742"></polygon>
                <polyline id="Path-3" stroke-width="2" points="3.97419355 6.10322581 3.97419355 10.6451613 10.6451613 10.6451613"></polyline>
                <polyline id="Path-4" stroke-width="2" stroke-linejoin="round" points="3.97419355 10.6451613 3.97419355 19.3032258 10.6451613 19.3032258"></polyline>
            </g>
        </g>
    </g>
</svg>